<svg width="208" height="211" viewBox="0 0 208 211" fill="none" xmlns="http://www.w3.org/2000/svg">
<path d="M89.3668 67.0837L87.5137 67.0024C87.6241 64.4746 88.734 42.1884 93.612 38.123C93.9218 37.8461 94.2871 37.6387 94.6835 37.5146C95.0799 37.3904 95.4982 37.3524 95.9104 37.4031C98.8145 37.8076 101.986 42.4157 105.605 51.4907C108.183 57.952 110.04 64.3946 110.059 64.459L108.276 64.9713C108.258 64.9078 106.422 58.5431 103.878 52.167C99.3861 40.9093 96.6309 39.3776 95.6549 39.2418C95.4983 39.2248 95.3398 39.2437 95.1916 39.297C95.0433 39.3503 94.909 39.4366 94.7989 39.5493C91.1995 42.5488 89.6574 60.442 89.3668 67.0837Z" fill="black"/>
<path d="M72.9957 55.0586L71.1406 101.609L132.348 95.0113L124.782 50.0682L72.9957 55.0586Z" fill="#FFBA49"/>
<path d="M124.782 50.0682L120.28 50.502L126.272 89.9125L71.355 96.2356L71.1406 101.609L132.348 95.0113L124.782 50.0682Z" fill="#FFA113"/>
<path d="M157.85 130.113L155.304 129.83C155.326 129.63 157.44 109.716 150.585 102.27C149.779 101.364 148.779 100.653 147.66 100.189C146.54 99.7245 145.331 99.52 144.121 99.5906C129.189 100.015 122.168 125.658 122.099 125.917L119.625 125.255C121.004 120.466 122.92 115.849 125.335 111.491C130.537 102.23 137.008 97.2288 144.048 97.0287C145.624 96.9478 147.199 97.2207 148.656 97.8274C150.113 98.4341 151.416 99.3592 152.47 100.535C160.113 108.841 157.946 129.248 157.85 130.113Z" fill="#FFBA49"/>
<path d="M112.427 111.85L166.457 118.263L165.619 203.997L93.4961 195.401L112.427 111.85Z" fill="#DB3022"/>
<path d="M166.457 118.262L161.106 117.627L158.5 196.955L94.5119 190.918L93.4961 195.401L165.619 203.997L166.457 118.262Z" fill="#D10505"/>
<path d="M179.998 145.509C182.459 146.025 184.803 144.057 185.234 141.109C185.693 141.893 186.152 142.678 186.611 143.464C186.181 146.411 183.835 148.38 181.377 147.864C180.918 147.078 180.458 146.293 179.998 145.509Z" fill="#FFBA49"/>
<path d="M107.332 208.563C109.793 209.079 112.137 207.11 112.568 204.163C113.027 204.947 113.486 205.731 113.945 206.517C113.515 209.464 111.169 211.434 108.711 210.918C108.252 210.132 107.792 209.347 107.332 208.563Z" fill="#9B9B9B"/>
<path d="M185.494 96.1688C186.526 98.8926 189.205 100.103 191.481 98.867C191.199 99.7646 190.917 100.662 190.634 101.559C188.358 102.793 185.679 101.584 184.648 98.8591C184.932 97.9633 185.214 97.0666 185.494 96.1688Z" fill="#FF5C00"/>
<path d="M169.571 76.8197C169.986 73.8687 168.327 71.0745 165.863 70.5774C166.515 70.0213 167.167 69.4653 167.819 68.9095C170.281 69.4067 171.941 72.202 171.527 75.1519C170.876 75.7081 170.224 76.264 169.571 76.8197Z" fill="#021193"/>
<path d="M21.7077 64.9101C22.123 61.9591 20.4636 59.1648 18 58.6677C18.6515 58.1116 19.3035 57.5557 19.9563 57C22.418 57.497 24.0783 60.2923 23.664 63.2423C23.0125 63.7984 22.3604 64.3543 21.7077 64.9101Z" fill="#FF5C00"/>
<path d="M72.0943 169.475C72.5097 166.523 70.8503 163.729 68.3867 163.232C69.0382 162.676 69.6902 162.12 70.3429 161.564C72.8046 162.061 74.4649 164.857 74.0506 167.807C73.3992 168.363 72.7471 168.919 72.0943 169.475Z" fill="#FF5C00"/>
<path d="M201.332 58.8891C203.777 59.506 206.174 57.6326 206.689 54.7031C207.126 55.5057 207.563 56.309 208 57.1128C207.486 60.0394 205.087 61.914 202.644 61.2988C202.206 60.4962 201.769 59.6929 201.332 58.8891Z" fill="#FFBA49"/>
<path d="M5.82079 95.1412C4.94465 92.3384 2.33935 90.9171 0 91.968C0.330918 91.0966 0.662322 90.2241 0.994215 89.3504C3.33162 88.3007 5.93838 89.7208 6.815 92.5224C6.4841 93.395 6.15269 94.2679 5.82079 95.1412Z" fill="#FFBA49"/>
<path d="M66.5349 129.28C66.7076 132.264 68.8677 134.516 71.3587 134.308C70.8334 135.033 70.3071 135.754 69.7827 136.479C67.2908 136.685 65.1315 134.432 64.959 131.447C65.4843 130.726 66.0096 130.003 66.5349 129.28Z" fill="#DB3022"/>
<path d="M48.9277 75.0532C51.4018 74.6419 53.1285 71.905 52.7843 68.9409C53.4234 69.5197 54.0616 70.0978 54.6988 70.6752C55.0421 73.6404 53.3163 76.3756 50.8423 76.7886C50.205 76.2097 49.5668 75.6312 48.9277 75.0532Z" fill="#021193"/>
<path d="M149.813 38.7056C146.605 38.8118 148.911 44.4645 145.702 44.5731C145.089 43.9567 144.477 43.3404 143.863 42.724C147.072 42.6172 144.766 36.9645 147.974 36.8561C148.587 37.4724 149.2 38.0889 149.813 38.7056Z" fill="#FF5C00"/>
<path d="M155.642 187.278C152.52 186.392 153.532 192.565 150.408 191.68C149.948 190.895 149.489 190.11 149.029 189.325C152.153 190.211 151.14 184.038 154.265 184.924C154.723 185.709 155.183 186.494 155.642 187.278Z" fill="#FFBA49"/>
<path d="M62.7799 195.315C60.5743 198.109 65.5412 200.157 63.3356 202.949C62.5391 203.031 61.7416 203.116 60.9451 203.197C63.1507 200.404 58.1837 198.359 60.3894 195.565C61.1868 195.483 61.9837 195.399 62.7799 195.315Z" fill="#021193"/>
<path d="M134.225 2.35469C131.085 3.15391 134.201 8.21878 131.063 9.01627C130.369 8.54138 129.671 8.06824 128.977 7.59218C132.116 6.79516 128.997 1.73212 132.138 0.932861C132.834 1.4089 133.53 1.88284 134.225 2.35469Z" fill="#DB3022"/>
<path d="M33.4445 19.0038C34.9892 22.3757 38.1377 17.3393 39.6801 20.7102C39.5009 21.6435 39.324 22.5802 39.1439 23.5141C37.6016 20.1421 34.4548 25.1801 32.9102 21.8082C33.0898 20.872 33.2679 19.9372 33.4445 19.0038Z" fill="#9B9B9B"/>
<path d="M6.81445 151.583C7.22878 151.508 7.60363 151.29 7.87356 150.966C8.14349 150.643 8.29136 150.235 8.29136 149.814C8.29136 149.392 8.14349 148.984 7.87356 148.661C7.60363 148.337 7.22878 148.119 6.81445 148.044" fill="black"/>
<path d="M174.448 14.8658C173.098 14.8658 172 13.5501 172 11.9328C172 10.3156 173.098 9 174.448 9C175.798 9 176.896 10.3156 176.896 11.9329C176.896 13.5501 175.798 14.8658 174.448 14.8658ZM174.448 10.1634C174.019 10.2058 173.624 10.415 173.348 10.7459C173.072 11.0768 172.936 11.5031 172.971 11.9329C172.932 12.1493 172.941 12.3716 172.997 12.5842C173.053 12.7968 173.155 12.9945 173.296 13.1633C173.437 13.332 173.613 13.4678 173.812 13.561C174.011 13.6541 174.228 13.7024 174.448 13.7024C174.668 13.7024 174.885 13.6541 175.084 13.561C175.283 13.4678 175.459 13.332 175.6 13.1633C175.741 12.9945 175.843 12.7968 175.899 12.5842C175.955 12.3716 175.964 12.1493 175.925 11.9329C175.959 11.5031 175.824 11.0768 175.548 10.7459C175.272 10.415 174.877 10.2058 174.448 10.1634Z" fill="black"/>
<path d="M31.9479 125.983C30.5981 125.983 29.5 124.668 29.5 123.05C29.5 121.433 30.5981 120.117 31.9479 120.117C33.2977 120.117 34.3958 121.433 34.3958 123.05C34.3958 124.668 33.2977 125.983 31.9479 125.983ZM31.9479 121.281C31.5336 121.356 31.1587 121.574 30.8888 121.897C30.6189 122.221 30.471 122.629 30.471 123.05C30.471 123.472 30.6189 123.88 30.8888 124.203C31.1587 124.526 31.5336 124.745 31.9479 124.82C32.3622 124.745 32.7371 124.526 33.007 124.203C33.2769 123.88 33.4248 123.472 33.4248 123.05C33.4248 122.629 33.2769 122.221 33.007 121.897C32.7371 121.574 32.3622 121.356 31.9479 121.281Z" fill="black"/>
</svg>
