<svg width="118" height="37" viewBox="0 0 118 37" fill="none" xmlns="http://www.w3.org/2000/svg">
<path d="M0.245117 34.0479L5.90918 33.999L6.39746 1.30859L0.0986328 1.21094V0.307617L13.1602 0.454102L24.708 22.9395L32.7891 0.551758L47.0469 0.698242V1.60156L41.9932 1.55273C41.9769 1.69922 41.9525 2.00846 41.9199 2.48047C41.9036 2.9362 41.8711 3.65234 41.8223 4.62891C41.7897 5.60547 41.749 6.88314 41.7002 8.46191C41.6514 10.0407 41.5944 12.0182 41.5293 14.3945C41.4642 16.7546 41.3991 19.5622 41.334 22.8174C41.2689 26.0726 41.2038 29.8649 41.1387 34.1943H47.1445V35.0977H26.2461V34.1943H32.0078L32.5938 3.65234L20.9971 35.6104L7.1543 8.99902L6.78809 33.999L12.208 33.9502V34.8535L0.245117 34.9512V34.0479ZM68.7998 35.9521C69.1579 35.9196 69.4997 35.7406 69.8252 35.415C70.1019 35.1383 70.3867 34.6989 70.6797 34.0967C70.9727 33.4782 71.2168 32.5993 71.4121 31.46L72.3154 31.5576C72.0876 32.9085 71.7783 33.9421 71.3877 34.6582C71.0133 35.3743 70.6309 35.8952 70.2402 36.2207C69.7845 36.6113 69.3044 36.8229 68.7998 36.8555C68.4092 36.8555 67.9046 36.7985 67.2861 36.6846C66.6839 36.5706 66.0817 36.3672 65.4795 36.0742C64.8773 35.7975 64.3239 35.4232 63.8193 34.9512C63.3148 34.4792 62.9648 33.877 62.7695 33.1445C62.1022 34.2676 61.207 35.179 60.084 35.8789C58.9609 36.5951 57.6833 36.9531 56.251 36.9531C55.5348 36.9531 54.8105 36.8717 54.0781 36.709C53.3457 36.5462 52.6702 36.2777 52.0518 35.9033C51.4495 35.529 50.9531 35.0407 50.5625 34.4385C50.1882 33.82 50.001 33.055 50.001 32.1436C50.001 31.0042 50.2207 30.0195 50.6602 29.1895C51.1159 28.3431 51.7181 27.6432 52.4668 27.0898C53.2155 26.5202 54.07 26.097 55.0303 25.8203C55.9906 25.5436 56.9834 25.4053 58.0088 25.4053C58.7087 25.4053 59.3841 25.4867 60.0352 25.6494C60.7025 25.8122 61.3779 26.097 62.0615 26.5039C62.0941 25.6738 62.1592 24.8438 62.2568 24.0137C62.3708 23.1836 62.4684 22.4105 62.5498 21.6943C62.5986 21.2712 62.6312 20.9294 62.6475 20.6689C62.68 20.4085 62.7044 20.1969 62.7207 20.0342C62.737 19.8714 62.7451 19.7493 62.7451 19.668C62.7614 19.5866 62.7695 19.5133 62.7695 19.4482C62.7695 17.9671 62.501 16.7871 61.9639 15.9082C61.4268 15.0293 60.7106 14.5898 59.8154 14.5898C59.3923 14.6224 58.9609 14.6956 58.5215 14.8096C58.082 14.9235 57.6833 15.0863 57.3252 15.2979C56.9671 15.4932 56.6742 15.7454 56.4463 16.0547C56.2184 16.3477 56.1045 16.6976 56.1045 17.1045C56.1045 17.5439 56.2428 17.8939 56.5195 18.1543C56.7962 18.3984 57.0973 18.6507 57.4229 18.9111C57.7646 19.1553 58.0739 19.4401 58.3506 19.7656C58.6273 20.0911 58.7656 20.5387 58.7656 21.1084C58.7656 21.7106 58.668 22.2152 58.4727 22.6221C58.2936 23.0127 58.0495 23.3301 57.7402 23.5742C57.431 23.8184 57.0811 23.9974 56.6904 24.1113C56.2998 24.209 55.9092 24.2578 55.5186 24.2578C55.1117 24.2578 54.7048 24.1927 54.2979 24.0625C53.9072 23.916 53.5492 23.6963 53.2236 23.4033C52.9144 23.1104 52.654 22.7279 52.4424 22.2559C52.2471 21.7839 52.1494 21.2142 52.1494 20.5469C52.1494 19.6517 52.3691 18.7972 52.8086 17.9834C53.248 17.1696 53.8258 16.4535 54.542 15.835C55.2581 15.2165 56.0719 14.7201 56.9834 14.3457C57.8949 13.9551 58.8226 13.7435 59.7666 13.7109C60.6455 13.7109 61.5977 13.89 62.623 14.248C63.6647 14.6061 64.6331 15.2165 65.5283 16.0791C66.4398 16.9417 67.1966 18.0973 67.7988 19.5459C68.401 20.9945 68.7021 22.8092 68.7021 24.9902C68.7021 26.0156 68.6615 26.9922 68.5801 27.9199C68.515 28.8477 68.4417 29.7103 68.3604 30.5078C68.279 31.2891 68.1976 32.0052 68.1162 32.6562C68.0511 33.3073 68.0186 33.8688 68.0186 34.3408C68.0186 34.8128 68.0592 35.1872 68.1406 35.4639C68.2383 35.7406 68.4255 35.9033 68.7021 35.9521H68.7998ZM62.3545 31.8506C62.2568 31.2972 62.1836 30.7194 62.1348 30.1172C62.0859 29.4987 62.0615 28.8802 62.0615 28.2617V27.6025C61.6058 27.2282 61.1094 26.9515 60.5723 26.7725C60.0514 26.5934 59.5794 26.5039 59.1562 26.5039C58.1309 26.5039 57.3496 26.9271 56.8125 27.7734C56.2754 28.6198 56.0068 29.7428 56.0068 31.1426C56.0068 31.7285 56.0638 32.2738 56.1777 32.7783C56.3079 33.2829 56.4788 33.7223 56.6904 34.0967C56.9183 34.4548 57.1868 34.7396 57.4961 34.9512C57.8216 35.1465 58.1797 35.2441 58.5703 35.2441C58.9609 35.2441 59.3353 35.1465 59.6934 34.9512C60.0677 34.7559 60.4176 34.5036 60.7432 34.1943C61.0687 33.8688 61.3698 33.5026 61.6465 33.0957C61.9232 32.6888 62.1592 32.2738 62.3545 31.8506ZM97.2422 26.04C97.2422 27.1631 97.0469 28.2129 96.6562 29.1895C96.2819 30.1497 95.7692 31.0368 95.1182 31.8506C94.4834 32.6481 93.751 33.3643 92.9209 33.999C92.1071 34.6175 91.2526 35.1383 90.3574 35.5615C89.4785 36.001 88.5996 36.3346 87.7207 36.5625C86.8418 36.7904 86.028 36.9043 85.2793 36.9043H85.0352C84.2865 36.888 83.4889 36.766 82.6426 36.5381C81.8125 36.3102 80.9824 35.9766 80.1523 35.5371C79.3385 35.1139 78.5573 34.585 77.8086 33.9502C77.0762 33.3154 76.4251 32.5749 75.8555 31.7285C75.2858 30.8659 74.8301 29.9056 74.4883 28.8477C74.1465 27.7734 73.9756 26.5934 73.9756 25.3076C73.9756 23.9893 74.179 22.7848 74.5859 21.6943C74.9928 20.5876 75.5218 19.6029 76.1729 18.7402C76.8402 17.8776 77.5889 17.1289 78.4189 16.4941C79.2653 15.8594 80.1117 15.3304 80.958 14.9072C81.8206 14.484 82.6426 14.1748 83.4238 13.9795C84.2214 13.7679 84.9131 13.6621 85.499 13.6621H85.6943C86.6872 13.6947 87.6637 13.8737 88.624 14.1992C89.5843 14.5085 90.4876 14.9398 91.334 15.4932C92.1966 16.0465 92.986 16.7057 93.7021 17.4707C94.4346 18.2194 95.0612 19.0495 95.582 19.9609C96.1029 20.8724 96.5098 21.8408 96.8027 22.8662C97.0957 23.8916 97.2422 24.9495 97.2422 26.04ZM89.4297 25.6494C89.4297 25.2425 89.4297 24.681 89.4297 23.9648C89.4297 23.2487 89.3971 22.4837 89.332 21.6699C89.2832 20.8398 89.1855 20.0016 89.0391 19.1553C88.8926 18.3089 88.6729 17.5439 88.3799 16.8604C88.0869 16.1768 87.7044 15.6234 87.2324 15.2002C86.7767 14.7607 86.1989 14.541 85.499 14.541C84.1644 14.541 83.1064 15.4525 82.3252 17.2754C81.5602 19.0983 81.1777 21.8571 81.1777 25.5518C81.1777 27.391 81.251 28.9697 81.3975 30.2881C81.5602 31.6064 81.8044 32.6888 82.1299 33.5352C82.4554 34.3815 82.8786 35 83.3994 35.3906C83.9202 35.7975 84.5469 36.001 85.2793 36.001H85.499C86.1989 35.9684 86.7767 35.7487 87.2324 35.3418C87.7044 34.9349 88.0869 34.3164 88.3799 33.4863C88.6891 32.64 88.917 31.5739 89.0635 30.2881C89.2262 29.0023 89.3483 27.4561 89.4297 25.6494ZM108.814 35.9033C107.822 35.9033 106.861 35.7731 105.934 35.5127C105.006 35.2686 104.16 34.9186 103.395 34.4629C102.646 33.9909 102.003 33.4375 101.466 32.8027C100.945 32.1517 100.595 31.4355 100.416 30.6543C100.416 30.1986 100.481 29.7754 100.611 29.3848C100.758 28.9941 100.953 28.6523 101.197 28.3594C101.458 28.0664 101.759 27.8385 102.101 27.6758C102.442 27.4967 102.809 27.4072 103.199 27.4072C103.671 27.4072 104.135 27.5456 104.591 27.8223C105.047 28.099 105.437 28.5221 105.763 29.0918C106.023 29.5638 106.21 30.0358 106.324 30.5078C106.454 30.9798 106.552 31.4355 106.617 31.875C106.699 32.3145 106.764 32.7295 106.812 33.1201C106.878 33.4945 106.975 33.82 107.105 34.0967C107.252 34.3734 107.455 34.5931 107.716 34.7559C107.976 34.9186 108.342 35 108.814 35C109.579 35 110.239 34.9268 110.792 34.7803C111.345 34.6338 111.801 34.4303 112.159 34.1699C112.517 33.9095 112.778 33.6165 112.94 33.291C113.119 32.9655 113.209 32.6156 113.209 32.2412C113.209 31.818 113.095 31.3867 112.867 30.9473C112.639 30.5078 112.306 30.1009 111.866 29.7266C111.427 29.3359 110.873 28.986 110.206 28.6768C109.555 28.3675 108.79 28.1396 107.911 27.9932C106.918 27.8304 105.999 27.5863 105.152 27.2607C104.322 26.9352 103.598 26.5039 102.979 25.9668C102.361 25.4134 101.873 24.7461 101.515 23.9648C101.173 23.1673 101.002 22.2152 101.002 21.1084C101.002 20.0016 101.246 19.0251 101.734 18.1787C102.239 17.3161 102.882 16.5918 103.663 16.0059C104.444 15.4199 105.323 14.9723 106.3 14.6631C107.276 14.3538 108.245 14.1992 109.205 14.1992C109.612 14.1992 110.084 14.2318 110.621 14.2969C111.158 14.3457 111.703 14.4434 112.257 14.5898C112.826 14.7363 113.388 14.9316 113.941 15.1758C114.495 15.4199 114.983 15.7292 115.406 16.1035C115.846 16.4779 116.196 16.9255 116.456 17.4463C116.716 17.9671 116.847 18.5693 116.847 19.2529C116.847 19.6436 116.773 20.0098 116.627 20.3516C116.497 20.6934 116.31 20.9945 116.065 21.2549C115.838 21.499 115.561 21.6943 115.235 21.8408C114.926 21.9873 114.601 22.0605 114.259 22.0605C113.478 22.0605 112.883 21.8896 112.477 21.5479C112.086 21.2061 111.801 20.7747 111.622 20.2539C111.443 19.7331 111.321 19.1797 111.256 18.5938C111.207 17.9915 111.126 17.43 111.012 16.9092C110.898 16.3883 110.711 15.957 110.45 15.6152C110.206 15.2734 109.791 15.1025 109.205 15.1025C108.098 15.1839 107.228 15.4525 106.593 15.9082C105.974 16.3477 105.665 16.9417 105.665 17.6904C105.665 18.1787 105.771 18.6589 105.982 19.1309C106.194 19.5866 106.495 20.0098 106.886 20.4004C107.293 20.791 107.781 21.1328 108.351 21.4258C108.92 21.7025 109.555 21.8978 110.255 22.0117C111.215 22.1745 112.135 22.4349 113.014 22.793C113.893 23.151 114.666 23.6068 115.333 24.1602C116.017 24.7135 116.554 25.3646 116.944 26.1133C117.351 26.8457 117.555 27.6595 117.555 28.5547C117.555 29.4499 117.319 30.3369 116.847 31.2158C116.391 32.0947 115.764 32.8841 114.967 33.584C114.169 34.2676 113.242 34.821 112.184 35.2441C111.126 35.6836 110.003 35.9033 108.814 35.9033Z" fill="#A00000"/>
</svg>
