<svg width="118" height="76" viewBox="0 0 118 76" fill="none" xmlns="http://www.w3.org/2000/svg">
<g clip-path="url(#clip0)">
<path d="M106.915 75.7753L103.567 65.6721C103.567 65.6721 107.25 69.3546 107.25 72.3761L106.589 65.3889C106.589 65.3889 108.477 67.9382 108.288 71.8095C108.1 75.6808 106.915 75.7753 106.915 75.7753Z" fill="#E6E6E6"/>
<path d="M35.0203 66.5759L31.7529 56.7156C31.7529 56.7156 35.3469 60.3095 35.3469 63.2584L34.7018 56.4391C34.7018 56.4391 36.5448 58.9272 36.3605 62.7055C36.1762 66.4837 35.0203 66.5759 35.0203 66.5759Z" fill="#E6E6E6"/>
<path d="M86.018 71.126C86.0236 77.6122 73.1589 75.6171 57.4095 75.6307C41.6601 75.6443 28.99 77.6615 28.9844 71.1752C28.9788 64.6889 41.8388 63.2671 57.5882 63.2535C73.3376 63.2399 86.0124 64.6397 86.018 71.126Z" fill="white"/>
<path d="M117.218 75.6269H0V75.9236H117.218V75.6269Z" fill="#3F3D56"/>
<path d="M74.9803 62.3662H72.9213L71.9414 54.4243H74.9803V62.3662Z" fill="#F5C4CB"/>
<path d="M71.2217 61.778H75.4214V64.2782H68.9502V64.0495C68.9502 63.447 69.1895 62.8693 69.6155 62.4433C70.0415 62.0173 70.6193 61.778 71.2217 61.778Z" fill="#2F2E41"/>
<path d="M90.1151 74.088H88.0561L87.0762 66.1461H90.1151V74.088Z" fill="#F5C4CB"/>
<path d="M86.3565 73.4998H90.5562V76H84.085V75.7713C84.085 75.1688 84.3243 74.5911 84.7503 74.1651C85.1763 73.7391 85.754 73.4998 86.3565 73.4998Z" fill="#2F2E41"/>
<path d="M99.6124 50.4941C99.7547 50.3215 99.8575 50.1197 99.9135 49.9031C99.9694 49.6864 99.9772 49.4601 99.9362 49.2401C99.8953 49.0201 99.8065 48.8118 99.6763 48.6298C99.5462 48.4478 99.3776 48.2966 99.1827 48.1867L94.4005 28.7059L91.3428 30.0214L97.0309 48.8578C96.8681 49.1975 96.8356 49.5852 96.9395 49.9473C97.0434 50.3095 97.2766 50.6209 97.5948 50.8226C97.913 51.0243 98.2941 51.1023 98.666 51.0417C99.0378 50.9812 99.3746 50.7864 99.6124 50.4941Z" fill="#F5C4CB"/>
<path d="M95.8824 11.1229C95.7117 10.9445 95.504 10.8056 95.2739 10.7162C95.0437 10.6267 94.7968 10.5888 94.5504 10.6051C94.3041 10.6214 94.0643 10.6915 93.8479 10.8105C93.6316 10.9296 93.444 11.0945 93.2983 11.2939L85.8965 12.1437L87.0225 14.9986L93.754 13.7388C94.1051 13.9613 94.5257 14.0473 94.9359 13.9805C95.3462 13.9136 95.7177 13.6986 95.9801 13.3762C96.2424 13.0537 96.3774 12.6463 96.3594 12.231C96.3414 11.8157 96.1716 11.4214 95.8824 11.1229Z" fill="#F5C4CB"/>
<path d="M83.6846 48.4738L86.9145 72.7148L90.9345 71.8872C90.9345 71.8872 90.3433 54.233 92.3533 52.1048C94.3634 49.9765 89.768 46.2482 89.768 46.2482L83.6846 48.4738Z" fill="#939393"/>
<path d="M85.0204 41.7968L83.5366 44.0225C83.5366 44.0225 72.1116 39.2745 72.1116 46.8417C72.1116 54.4088 71.4578 59.5442 71.2213 59.8989C70.9849 60.2536 73.957 61.174 75.3759 60.9375C75.3759 60.9375 77.1263 48.7381 77.008 48.0287C77.008 48.0287 88.2155 53.5236 90.3438 53.0506C92.472 52.5777 92.9748 50.9035 93.3295 49.9576C93.6842 49.0117 93.1812 41.5001 93.1812 41.5001L86.0872 39.3352L85.0204 41.7968Z" fill="#939393"/>
<path d="M85.2203 28.4339L84.7973 27.9264C84.7973 27.9264 80.0606 17.2688 81.9215 14.3929C83.7823 11.517 91.9025 11.0941 92.1562 11.2632C92.41 11.4324 91.5501 13.6288 92.1422 14.6438C92.1422 14.6438 85.8519 16.0076 85.429 16.1768C85.006 16.3459 88.6882 22.5976 88.6882 22.5976L88.2653 26.4039L85.2203 28.4339Z" fill="#FF7A70"/>
<path d="M93.5089 23.1897C93.5089 23.1897 89.1105 23.6972 88.9413 23.6972C88.7722 23.6972 88.6876 22.5976 88.6876 22.5976L84.7967 27.9264C84.7967 27.9264 82.8798 43.386 83.3873 43.1322C83.8948 42.8785 93.2552 44.3358 93.3397 43.6592C93.4243 42.9825 93.2552 39.5991 93.5089 39.4299C93.7627 39.2608 97.9073 28.7723 97.9073 28.7723C97.9073 28.7723 97.4844 26.5731 96.0464 25.8118C94.6085 25.0505 93.5089 23.1897 93.5089 23.1897Z" fill="#FF7A70"/>
<path d="M96.5544 27.3343L97.9078 28.7722C97.9078 28.7722 99.9186 45.2955 98.819 45.803C97.7194 46.3105 95.5547 46.2481 95.5547 46.2481L93.4248 38.4149L96.5544 27.3343Z" fill="#FF7A70"/>
<path d="M89.2829 22.1433C91.4331 22.1433 93.1761 20.4002 93.1761 18.2501C93.1761 16.0999 91.4331 14.3568 89.2829 14.3568C87.1327 14.3568 85.3896 16.0999 85.3896 18.2501C85.3896 20.4002 87.1327 22.1433 89.2829 22.1433Z" fill="#F5C4CB"/>
<path d="M88.3698 18.8575C88.3172 18.0497 87.2981 18.022 86.4886 18.0144C85.6791 18.0067 84.7113 18.0356 84.2532 17.3681C83.9505 16.927 84.0083 16.3146 84.2584 15.8416C84.5085 15.3687 84.9198 15.0049 85.3245 14.655C86.3693 13.7516 87.4461 12.8553 88.7004 12.277C89.9548 11.6988 91.4247 11.4651 92.7256 11.9293C94.3236 12.4995 96.4839 15.4348 96.6704 17.1213C96.857 18.8077 96.183 20.5269 95.0469 21.7871C93.9108 23.0473 91.3105 22.5389 89.674 22.9872C90.6689 21.5792 90.0131 19.0207 88.4194 18.3632L88.3698 18.8575Z" fill="#2F2E41"/>
<path d="M53.6714 69.217C58.8331 69.217 63.0175 65.0326 63.0175 59.8708C63.0175 54.7091 58.8331 50.5247 53.6714 50.5247C48.5096 50.5247 44.3252 54.7091 44.3252 59.8708C44.3252 65.0326 48.5096 69.217 53.6714 69.217Z" fill="#DB3022"/>
<path d="M47.4298 49.8606C46.1345 49.8607 44.8669 49.4853 43.7805 48.7799C42.6941 48.0745 41.8355 47.0694 41.3085 45.8861L26.4778 12.4876C25.9866 11.3813 25.7267 10.1862 25.7143 8.97576C25.7019 7.76533 25.9372 6.56514 26.4057 5.44898C26.8742 4.33282 27.566 3.32426 28.4386 2.4853C29.3112 1.64634 30.3462 0.994698 31.4799 0.570437C32.6136 0.146175 33.8221 -0.0417456 35.0312 0.0182264C36.2402 0.0781983 37.4241 0.384795 38.5103 0.919171C39.5965 1.45355 40.5619 2.20441 41.3472 3.12561C42.1325 4.04682 42.7211 5.11889 43.0768 6.27594L53.816 41.2057C54.1234 42.2055 54.1921 43.2635 54.0165 44.2947C53.8409 45.3259 53.4259 46.3015 52.8048 47.1432C52.1838 47.9848 51.374 48.6691 50.4405 49.1411C49.507 49.613 48.4758 49.8595 47.4298 49.8606Z" fill="#DB3022"/>
</g>
<defs>
<clipPath id="clip0">
<rect width="117.218" height="76" fill="white"/>
</clipPath>
</defs>
</svg>
